<svg width="81" height="17" viewBox="0 0 81 17" fill="none" xmlns="http://www.w3.org/2000/svg">
<path d="M14.0781 14.0784H6.33794C5.26251 14.0784 4.38963 13.2029 4.38963 12.1242V9.57025C4.38963 8.49158 5.26251 7.61607 6.33794 7.61607H14.1264C15.6238 7.61607 16.8366 6.39953 16.8366 4.89761C16.8366 4.78878 16.7498 4.69929 16.6413 4.69929H5.2167C2.83918 4.69687 0.910156 6.63171 0.910156 9.01641V12.6684C0.910156 15.0531 2.83918 16.988 5.2167 16.988H7.46401C7.5484 16.9904 7.6328 16.9952 7.7196 16.9952H11.5632C13.0606 16.9952 14.2735 15.7787 14.2735 14.2768C14.2735 14.1679 14.1867 14.0784 14.0781 14.0784Z" fill="#2B2B2B"/>
<path d="M17.4371 0.0121385H15.1897C15.1053 0.00971992 15.021 0.00488281 14.9341 0.00488281H11.0906C9.59317 0.00488281 8.38029 1.22141 8.38029 2.72334C8.38029 2.83217 8.4671 2.92166 8.57561 2.92166H16.3158C17.3912 2.92166 18.2641 3.79717 18.2641 4.87585V7.42984C18.2641 8.50851 17.3912 9.38403 16.3158 9.38403H8.52738C7.02998 9.38403 5.81711 10.6006 5.81711 12.1025C5.81711 12.2113 5.90391 12.3008 6.01242 12.3008H17.4346C19.8122 12.3008 21.7412 10.366 21.7412 7.98127V4.32925C21.7436 1.94698 19.817 0.0121385 17.4371 0.0121385Z" fill="#2B2B2B"/>
<path d="M45.6914 0.687012H45.3611C43.7431 0.687012 42.4338 2.0027 42.4338 3.62313V15.9553C42.4338 16.0787 42.5351 16.1803 42.6581 16.1803H42.9884C44.6064 16.1803 45.9157 14.8646 45.9157 13.2441V0.911937C45.9157 0.788591 45.8144 0.687012 45.6914 0.687012Z" fill="#2B2B2B"/>
<path d="M40.7941 0.699104H31.055C28.6726 0.699104 26.7412 2.63636 26.7412 5.02589V11.851C26.7412 14.2406 28.6726 16.1778 31.055 16.1778H33.3071C33.3915 16.1803 33.4759 16.1851 33.5627 16.1851H37.4111C38.9109 16.1851 40.1262 14.9661 40.1262 13.4642C40.1262 13.3554 40.0394 13.2659 39.9309 13.2659H32.1762C31.0984 13.2659 30.2231 12.3904 30.2231 11.3069V9.89444C30.2231 9.83881 30.2689 9.79286 30.3244 9.79286H35.6678C37.1435 9.79286 38.337 8.59326 38.337 7.11552C38.337 7.00669 38.2502 6.9172 38.1417 6.9172H30.3244C30.2689 6.9172 30.2231 6.87125 30.2231 6.81562V5.57974C30.2231 4.49865 31.096 3.62072 32.1762 3.62072H38.2768C39.7766 3.62072 40.9919 2.40176 40.9919 0.899844C40.9895 0.786172 40.9026 0.699104 40.7941 0.699104Z" fill="#2B2B2B"/>
<path d="M55.5608 4.1528H56.9907C57.9022 4.1528 58.64 3.41272 58.64 2.49851V1.06431C58.64 0.85631 58.4712 0.687012 58.2638 0.687012H56.834C55.9225 0.687012 55.1846 1.42709 55.1846 2.3413V3.7755C55.1846 3.9835 55.3534 4.1528 55.5608 4.1528Z" fill="#2B2B2B"/>
<path d="M52.0813 0.687012H51.751C50.133 0.687012 48.8237 2.0027 48.8237 3.62313V15.9553C48.8237 16.0787 48.925 16.1803 49.0479 16.1803H49.3783C50.9963 16.1803 52.3056 14.8646 52.3056 13.2441V0.911937C52.3056 0.788591 52.2043 0.687012 52.0813 0.687012Z" fill="#2B2B2B"/>
<path d="M75.2151 4.1528C73.3271 4.1528 71.7622 4.77678 70.6892 5.96187C69.7198 7.03087 69.1869 8.53521 69.1869 10.1992C69.1869 13.6843 71.8755 16.3133 75.4394 16.3133C78.6247 16.3133 80.1534 14.3663 80.4356 13.9649C80.4597 13.9286 80.4524 13.8778 80.4211 13.8512L80.3126 13.7593C79.3408 12.9394 78.0267 12.6758 76.809 13.0361C76.3629 13.1692 75.8324 13.2635 75.2224 13.2635C73.942 13.2635 72.8617 12.5597 72.3602 11.5197H79.6808C80.409 11.5197 80.9974 10.9296 80.9998 10.1992C80.9974 6.80837 78.4583 4.1528 75.2151 4.1528ZM72.2565 9.01167C72.6471 7.90881 73.6068 7.0212 75.0994 7.0212C77.12 7.0212 77.7012 8.61744 77.8145 9.01167H72.2565Z" fill="#2B2B2B"/>
<path d="M58.4278 4.89529H58.0975C56.4795 4.89529 55.1702 6.21098 55.1702 7.83141V15.9553C55.1702 16.0787 55.2714 16.1803 55.3944 16.1803H55.7248C57.3427 16.1803 58.6521 14.8646 58.6521 13.2441V5.12022C58.6521 4.99687 58.5532 4.89529 58.4278 4.89529Z" fill="#2B2B2B"/>
<path d="M67.5979 4.00526H65.3554V1.20942C65.3554 1.10058 65.3048 1.00384 65.2204 0.938541C65.1336 0.87324 65.0251 0.853892 64.9238 0.885333L64.3547 1.05705C63.0454 1.45369 62.1629 2.63636 62.146 4.00285H60.4967C60.311 4.00285 60.1615 4.1528 60.1615 4.33903V6.76967C60.1615 6.9559 60.311 7.10585 60.4967 7.10585H62.146V12.2404C62.146 13.8512 62.5824 14.9879 63.4433 15.6216C64.0678 16.0811 65.0227 16.3109 66.2934 16.3109C66.7057 16.3109 67.1494 16.2867 67.6268 16.2383C67.8004 16.2214 67.9331 16.0763 67.9331 15.9021V13.6214C67.9331 13.5271 67.8969 13.4425 67.8294 13.3772C67.7619 13.3143 67.6751 13.2804 67.5834 13.2852C67.1229 13.307 66.7226 13.307 66.3923 13.2877C66.045 13.2659 65.7822 13.174 65.6086 13.0144C65.4398 12.8596 65.3554 12.5984 65.3554 12.2429V7.11069H67.5979C67.7836 7.11069 67.9331 6.96074 67.9331 6.77451V4.34144C67.9331 4.15522 67.7836 4.00526 67.5979 4.00526Z" fill="#2B2B2B"/>
</svg>
