<?xml version="1.0" standalone="no"?>
<!DOCTYPE svg PUBLIC "-//W3C//DTD SVG 20010904//EN"
 "http://www.w3.org/TR/2001/REC-SVG-20010904/DTD/svg10.dtd">
<svg version="1.0" xmlns="http://www.w3.org/2000/svg"
 width="700.000000pt" height="700.000000pt" viewBox="0 0 700.000000 700.000000"
 preserveAspectRatio="xMidYMid meet">
<metadata>
Created by potrace 1.14, written by Peter Selinger 2001-2017
</metadata>
<g transform="translate(0.000000,700.000000) scale(0.100000,-0.100000)"
fill="#000000" stroke="none">
<path d="M840 3680 l0 -2610 2589 0 c2062 0 2590 3 2593 13 4 10 3 5178 -1
5200 0 4 -1166 7 -2591 7 l-2590 0 0 -2610z m1810 2490 c0 -3 -28 -14 -63 -24
-34 -11 -82 -29 -107 -40 -25 -11 -49 -21 -55 -22 -21 -4 -294 -142 -305 -154
-3 -3 -25 -18 -50 -32 -43 -25 -229 -155 -240 -167 -3 -4 -27 -25 -55 -47
l-50 -42 -385 2 -385 1 -1 260 c-1 143 0 262 2 265 3 7 1694 7 1694 0z m1005
-4 c39 -3 79 -8 90 -10 11 -2 42 -7 68 -10 27 -4 59 -9 70 -12 12 -2 36 -7 52
-10 17 -4 37 -8 45 -9 8 -1 22 -5 30 -7 8 -3 53 -16 100 -28 172 -47 403 -146
581 -251 41 -24 76 -46 79 -49 3 -3 31 -23 64 -45 32 -21 74 -51 92 -66 l34
-27 -1526 1 c-1420 0 -1524 1 -1507 16 52 48 354 241 377 241 5 0 21 9 37 21
16 11 29 18 29 15 0 -3 17 3 38 13 68 34 106 50 207 86 55 20 100 35 100 35 0
-1 7 1 15 4 68 22 239 61 310 70 25 3 60 10 78 15 20 6 32 6 32 0 0 -6 7 -6
18 -1 9 4 48 9 87 11 38 1 71 4 72 5 5 4 254 -2 328 -8z m2256 -16 c1 -30 1
-492 0 -501 -1 -4 -175 -7 -387 -7 l-385 1 -77 64 c-137 114 -327 237 -487
315 -137 67 -338 145 -357 140 -5 -1 -8 1 -8 6 0 4 383 7 850 7 l850 0 1 -25z
m-4321 -629 c0 -3 -21 -28 -46 -56 -89 -97 -100 -111 -150 -175 -166 -214
-300 -454 -394 -710 -23 -63 -43 -116 -44 -117 -1 -2 -2 237 -2 531 l0 533
318 0 c175 0 318 -3 318 -6z m1820 3 c0 -2 -92 -161 -205 -355 -113 -193 -205
-355 -205 -360 0 -5 -4 -9 -10 -9 -5 0 -10 -5 -10 -11 0 -8 -51 -100 -100
-179 -5 -8 -28 -46 -50 -85 -22 -38 -45 -77 -50 -85 -5 -8 -28 -49 -52 -90
-23 -41 -47 -78 -53 -82 -5 -4 -6 -8 -2 -8 5 0 0 -12 -11 -27 -10 -16 -30 -48
-44 -73 -14 -25 -96 -166 -183 -315 -87 -148 -169 -290 -183 -315 -13 -25 -28
-49 -32 -55 -4 -5 -17 -26 -27 -45 -22 -38 -188 -325 -203 -350 -23 -38 -237
-408 -243 -421 -4 -8 -16 -27 -27 -44 -11 -16 -23 -37 -27 -45 -4 -8 -39 -69
-78 -135 -39 -66 -74 -127 -78 -135 -21 -43 -66 -115 -75 -118 -5 -1 -40 44
-78 100 -88 132 -87 130 -131 213 -60 114 -113 227 -127 275 -1 3 -4 10 -7 15
-6 9 -60 169 -65 190 -1 6 -14 55 -28 110 -28 113 -53 258 -63 372 -13 148 -7
422 12 552 2 14 7 46 10 71 45 313 195 695 386 983 110 166 332 422 393 454
16 9 1646 15 1646 7z m1782 -92 c119 -121 112 -113 189 -212 213 -273 366
-585 453 -923 14 -54 30 -124 36 -155 5 -31 11 -68 14 -82 4 -23 7 -48 21
-190 5 -52 6 -318 1 -370 -10 -105 -19 -174 -33 -250 -8 -47 -17 -96 -20 -110
-18 -105 -90 -325 -152 -465 -61 -137 -174 -337 -235 -419 -20 -25 -33 -46
-29 -46 3 0 -4 -9 -17 -20 -13 -11 -24 -19 -26 -18 -1 2 -34 59 -74 128 -40
69 -79 136 -88 150 -9 14 -17 27 -17 30 0 3 -8 16 -17 30 -26 41 -133 225
-133 230 0 3 -13 24 -28 48 -31 47 -83 139 -93 162 -4 8 -12 22 -19 30 -7 8
-26 40 -42 70 -17 30 -53 95 -82 143 -28 49 -51 92 -51 97 0 5 -4 10 -8 12 -5
1 -21 26 -36 53 -27 49 -118 205 -137 235 -10 17 -313 538 -340 586 -9 17 -23
42 -31 55 -7 13 -15 26 -18 29 -3 3 -12 19 -20 35 -8 17 -17 32 -21 35 -3 3
-23 37 -44 75 -22 39 -44 78 -50 87 -5 9 -17 29 -26 45 -9 15 -80 138 -158
273 -79 135 -195 335 -259 445 -63 110 -124 212 -134 227 -11 16 -17 32 -14
36 3 5 374 9 825 9 l821 0 92 -95z m719 69 c4 -194 2 -1038 -3 -1035 -4 3 -12
19 -17 37 -36 122 -127 327 -214 483 -28 50 -172 267 -189 286 -7 7 -35 40
-61 73 -27 33 -73 86 -102 117 -29 31 -51 58 -49 61 2 2 146 4 319 4 l315 0 1
-26z m-2327 -441 c74 -129 140 -240 146 -247 5 -7 10 -15 10 -18 0 -5 53 -97
196 -342 34 -57 160 -275 254 -438 51 -88 98 -167 105 -175 8 -8 14 -18 14
-23 0 -4 7 -17 15 -30 14 -24 215 -369 248 -427 11 -19 100 -172 198 -340 98
-168 187 -321 197 -340 11 -19 35 -60 53 -90 37 -62 65 -111 122 -211 7 -13
18 -31 24 -39 6 -8 25 -40 41 -70 16 -30 41 -73 55 -95 13 -22 27 -47 31 -55
4 -8 12 -22 19 -31 9 -14 6 -24 -19 -55 -45 -56 -249 -254 -262 -254 -6 0 -11
-4 -11 -9 0 -33 -478 -344 -512 -333 -5 1 -8 -3 -8 -8 0 -6 -4 -10 -10 -10 -5
0 -39 -14 -75 -31 -37 -17 -71 -32 -78 -33 -7 -2 -23 -8 -37 -13 -123 -51
-358 -112 -495 -129 -22 -2 -45 -7 -52 -9 -65 -22 -518 -23 -628 -1 -11 2 -42
7 -68 10 -26 4 -71 11 -100 17 -29 6 -59 12 -67 13 -145 24 -541 176 -643 248
-15 11 -27 17 -27 14 0 -11 -207 128 -309 208 -103 80 -325 292 -357 341 -16
24 -15 27 10 65 14 22 26 42 26 44 0 3 33 60 73 128 40 68 100 169 133 226 32
57 67 118 78 135 10 18 57 100 105 182 47 83 91 156 98 163 7 7 13 18 13 23 0
6 16 35 35 65 19 30 35 56 35 58 0 3 28 51 61 108 34 57 72 121 84 143 13 22
84 145 159 273 75 129 136 238 136 243 0 5 3 9 8 9 4 0 12 10 18 23 6 12 35
65 66 117 219 375 408 702 493 850 33 58 63 107 67 108 4 2 8 8 8 13 0 5 17
38 38 72 21 35 42 70 46 77 4 8 12 24 19 35 7 11 23 40 36 64 19 36 25 41 36
30 7 -8 74 -120 149 -249z m-2611 -2199 c14 -68 183 -453 208 -471 3 -3 14
-21 24 -40 19 -37 112 -177 164 -246 l31 -41 -50 -83 c-28 -46 -50 -84 -50
-85 0 -2 -36 -64 -80 -139 -44 -76 -80 -141 -80 -146 0 -4 -4 -10 -8 -12 -4
-1 -38 -57 -75 -123 -38 -66 -76 -130 -86 -143 -16 -22 -17 13 -17 772 0 437
3 793 7 791 3 -3 9 -18 12 -34z m4941 -762 c-1 -440 -4 -802 -6 -804 -2 -3
-22 27 -44 66 -21 39 -49 88 -61 108 -12 20 -25 43 -29 51 -4 8 -17 31 -29 50
-12 19 -33 55 -47 80 -14 25 -64 111 -112 192 -47 81 -86 150 -86 153 0 4 -7
13 -15 21 -24 25 -18 52 28 112 88 115 187 280 263 437 21 44 38 82 39 85 0 3
17 48 38 100 20 52 41 107 46 123 6 15 12 27 13 27 2 0 2 -360 2 -801z m-4154
-410 c36 -31 92 -76 125 -100 33 -24 62 -47 63 -51 2 -5 8 -8 13 -8 6 0 15 -5
22 -10 63 -55 382 -224 517 -274 182 -68 249 -61 -656 -61 -564 0 -814 3 -814
11 0 5 14 31 30 57 17 26 30 49 30 52 0 2 21 39 46 82 26 43 55 92 64 108 10
17 66 113 125 215 60 102 118 202 129 222 l21 36 110 -112 c60 -62 139 -137
175 -167z m3677 184 c28 -49 60 -104 71 -123 10 -19 46 -80 79 -135 33 -55 76
-130 97 -167 21 -37 42 -70 47 -74 5 -3 7 -10 4 -15 -4 -5 -1 -9 4 -9 6 0 11
-4 11 -10 0 -5 18 -39 40 -75 22 -36 40 -69 40 -73 0 -4 -362 -7 -804 -7 -442
0 -802 3 -800 7 3 5 84 36 114 43 31 8 227 97 310 142 87 46 308 190 369 240
135 110 350 316 351 336 0 22 21 -3 67 -80z"/>
</g>
</svg>
